<svg width="231" height="36" viewBox="0 0 231 36" fill="none" xmlns="http://www.w3.org/2000/svg">
<path d="M31.8026 15.1055C31.7687 15.1056 31.7351 15.1112 31.703 15.1221C31.6907 15.1252 31.679 15.1307 31.6688 15.1383C31.6586 15.1459 31.65 15.1554 31.6435 15.1664C31.5176 15.4748 25.3413 26.6766 25.3413 26.7084C25.3413 26.7402 24.6206 34.6013 24.6206 34.6013C24.6206 34.6013 24.7825 35.1242 25.2376 35.127C25.4229 34.8019 27.1091 31.6467 27.7952 30.4073C28.1729 29.7267 28.5325 29.0364 28.9019 28.3545C29.3611 27.5135 29.8079 26.6669 30.263 25.8245C30.6379 25.1328 31.0155 24.4412 31.3904 23.7565C31.7943 23.0123 32.1973 22.2676 32.5993 21.5225C33.0946 20.604 33.5842 19.6828 34.0808 18.7656C34.511 17.9703 34.9592 17.1846 35.377 16.3836C35.5997 15.9548 35.8694 15.5537 36.0478 15.0986H34.4004C33.5289 15.1014 32.674 15.0778 31.8026 15.1055Z" fill="#B9BBD0"/>
<path d="M26.6955 15.0391C26.8934 15.1608 27.1008 15.1207 27.3097 15.1207C28.2877 15.1207 29.2643 15.1207 30.2423 15.1207C30.3654 15.1207 30.8716 15.1207 30.9809 15.0336C31.0902 14.9464 30.7043 14.8621 30.7236 14.7569C30.956 13.3972 31.1884 12.0388 31.4319 10.6818C31.768 8.78119 32.0903 6.88196 32.4264 4.97996C32.7031 3.47634 32.9535 1.96996 33.2149 0.466345C33.2503 0.363373 33.2439 0.250596 33.1969 0.152343C33.1471 0.112228 32.6574 0.200757 32.4693 0.243639C32.4444 0.260238 32.5869 0.441447 32.5288 0.531359C32.4375 0.669686 32.3351 0.808014 32.2383 0.946341C31.9271 1.36132 31.6394 1.78599 31.3323 2.1982C31.1829 2.38356 31.0625 2.58967 30.9173 2.78056C30.862 2.80269 30.8412 2.85526 30.8094 2.89952C30.3584 3.51369 29.902 4.1251 29.4552 4.74204C29.0914 5.24417 28.7359 5.75459 28.3776 6.26364C28.1203 6.54029 26.6527 13.7845 26.6651 14.01C26.6471 14.1303 26.6098 14.2451 26.5821 14.3613C26.5544 14.4775 26.5738 14.6255 26.5448 14.7569C26.5327 14.8142 26.5413 14.8738 26.5688 14.9254C26.5964 14.977 26.6413 15.0173 26.6955 15.0391Z" fill="#B9BBD0"/>
<path d="M46.1181 34.2583C45.9189 34.242 45.7214 34.2096 45.5274 34.1615C45.4375 34.1571 45.3483 34.1422 45.2618 34.1172C45.3077 34.1224 45.3539 34.1252 45.4001 34.1255C45.2369 33.9775 44.8593 33.7243 44.6947 33.5722C44.6781 33.5653 44.6421 33.5832 44.6075 33.6026C44.6081 33.5976 44.6081 33.5925 44.6075 33.5874C44.5579 33.4501 44.4785 33.3254 44.3751 33.2222C44.4208 33.1226 44.2368 32.9179 44.2008 32.8404C44.0625 32.5043 43.9242 32.164 43.7997 31.8237C43.7997 31.8154 43.7928 31.8071 43.7886 31.7974C43.7776 31.7656 43.7665 31.7324 43.7527 31.702C43.6807 31.5111 43.6143 31.3188 43.5383 31.1279C43.5175 31.0726 43.4968 31.0159 43.4733 30.9592C43.4733 30.9592 43.4732 30.9467 43.4663 30.9412C43.4165 30.8139 43.3681 30.6853 43.3169 30.558C42.9448 29.6174 42.5976 28.6657 42.2338 27.7209C42.018 27.1579 41.7815 26.6019 41.6003 26.025C41.5754 25.9379 41.545 25.8535 41.5118 25.7691C41.26 25.1135 40.9889 24.4661 40.7676 23.8007C40.7592 23.7772 40.7495 23.7541 40.7385 23.7316C40.5725 23.3609 40.4508 22.9736 40.2834 22.6042C40.2656 22.5549 40.2409 22.5083 40.2101 22.4659C40.1958 22.4488 40.1778 22.4351 40.1574 22.426C40.137 22.4169 40.1148 22.4126 40.0925 22.4133H40.0469C39.7426 22.6167 39.5448 22.9224 39.3096 23.188C38.9057 23.6458 38.5101 24.1106 38.0979 24.5602C37.9042 24.7856 37.4837 24.8755 37.4546 25.2034C37.4214 25.5907 37.4657 26.0167 37.4242 26.4041C37.3979 26.6586 37.1157 26.4857 37.1628 26.7485C37.1628 26.7485 37.1628 26.9906 37.1628 27.0003C37.1821 27.0362 37.8198 28.3517 38.2694 29.4791C38.7189 30.6064 39.1906 31.7435 39.2377 31.8168C39.2847 31.8901 39.3041 31.9856 39.3483 32.0644V32.0727C39.3555 32.0829 39.362 32.0935 39.3677 32.1045C39.4673 32.265 39.7744 32.7132 39.8186 32.7962C39.9236 32.9056 40.0379 33.0055 40.1603 33.095C40.3056 33.254 40.5103 33.3038 40.7039 33.3716C40.8976 33.4394 43.2243 33.853 43.7928 33.9692C44.3613 34.0854 44.9202 34.1601 45.4942 34.2666C45.7018 34.2876 45.9111 34.2849 46.1181 34.2583Z" fill="#B9BBD0"/>
<path d="M58.9424 1.18564C58.8929 1.07669 58.8204 0.979734 58.7299 0.901421C58.6394 0.823107 58.5331 0.765289 58.4181 0.73193C58.3171 0.694582 56.9159 0.632335 56.3211 0.617119C54.8783 0.629568 53.4356 0.59222 51.9942 0.525823L50.0728 0.523056L49.698 0.571471C49.3549 0.639251 48.5914 0.752679 48.554 0.756829L47.2385 0.94772C46.9342 0.991985 45.8981 1.11095 45.6408 1.20224C45.598 1.21331 45.5523 1.22576 45.5302 1.22852C44.9188 1.30737 44.3115 1.40005 43.7803 1.74863C43.7682 1.75501 43.7566 1.76241 43.7458 1.77077L43.7347 1.77907C43.5522 1.91367 43.3776 2.05869 43.2118 2.21341C43.1371 2.25076 40.7219 4.7697 40.6929 4.81811V4.83056C40.5974 5.23586 40.6638 5.64808 40.6043 6.05891C40.55 6.27288 40.5207 6.49246 40.5172 6.7132C40.5134 6.79044 40.5032 6.86724 40.4868 6.94282C40.4868 6.94282 40.4868 6.9691 40.4785 6.98155C40.4245 7.27896 40.3789 7.57913 40.3401 7.87791C40.2502 8.61796 40.1202 9.3511 40.0165 10.0911C39.9637 10.3178 39.939 10.5501 39.9431 10.7828C39.9443 10.8038 39.9476 10.8246 39.9528 10.845C39.9522 10.8542 39.9522 10.8635 39.9528 10.8727C40.1327 10.8575 41.2448 10.4577 41.4744 10.087L44.8164 6.28992C45.8248 5.14733 46.4985 4.26204 47.5221 3.13329C47.731 2.90367 48.7062 2.4292 48.7435 2.37941C48.9054 2.16638 48.5609 1.81365 48.7643 1.64351C48.9702 1.46548 49.1655 1.27566 49.3494 1.07498C49.1502 1.16351 49.6689 0.906222 49.5237 0.910372C50.1199 0.756829 49.6745 0.65585 50.2831 0.625418C50.7826 0.609064 51.2826 0.618298 51.7812 0.653084C52.7578 0.702881 53.7357 0.666916 54.7137 0.701498C55.8203 0.74023 56.9187 0.709798 58.0197 0.758212C58.425 0.776195 58.8497 1.00997 58.8815 1.31152C58.9078 1.54253 58.7169 1.7348 58.6782 1.94368C58.7874 1.87255 58.8667 1.76375 58.9009 1.63797C58.9597 1.49475 58.9741 1.33717 58.9424 1.18564ZM46.1997 1.18564H46.2094C46.2062 1.18653 46.2029 1.18653 46.1997 1.18564Z" fill="#B9BBD0"/>
<path d="M14.2461 0.830149C14.0428 0.863348 13.4742 1.05286 13.2778 1.08467C12.908 1.19957 12.5315 1.29196 12.1504 1.36133C11.9485 1.43187 11.7355 1.46784 11.539 1.54807L11.4007 1.59787C11.279 1.65458 11.1448 1.67948 11.0231 1.73619C10.7326 1.87452 10.4324 1.97135 10.1502 2.12213C9.82101 2.29642 9.48626 2.46241 9.15289 2.6284C7.74472 3.0005 5.32538 5.65223 5.27697 5.70065L5.22578 5.75045C3.77058 6.93176 2.34996 10.3194 2.30985 10.3969L2.2974 10.4287C2.23653 10.4771 1.9004 11.4426 1.90178 11.4813C1.89644 11.4926 1.89182 11.5041 1.88795 11.5159C1.84507 11.646 1.71089 12.09 1.70397 12.09C1.69706 12.09 1.41625 13.0583 1.41764 13.0763C1.38721 13.1579 1.29176 13.4691 1.27931 13.548C1.21845 13.6683 0.939025 14.8289 0.904443 14.9119C0.858141 15.0355 0.818431 15.1616 0.785482 15.2895C0.706642 15.5217 0.654208 15.7621 0.629172 16.006C0.629172 16.0171 0.629172 16.0268 0.629172 16.0351C0.61534 16.0959 0.604273 16.1568 0.595974 16.219V16.2273C0.546639 16.421 0.511046 16.6179 0.489462 16.8166C0.489462 16.8678 0.477013 16.9162 0.471479 16.9619C0.46318 17.0356 0.456263 17.0993 0.45073 17.1528C0.425831 17.3091 0.39125 17.4488 0.39125 17.4488C0.293897 17.8134 0.238667 18.1879 0.22664 18.5651C0.200358 18.7753 0.182376 18.9801 0.156093 19.1958C0.147794 19.431 0.0841633 19.662 0.109062 19.8999C0.096868 19.9224 0.0911228 19.9477 0.092463 19.9732C0.0122332 20.3301 0.0454317 20.6967 0.0274492 21.055C-0.019582 21.8711 0.0080834 22.6941 0.0080834 23.5158V23.6541C0.0080834 23.6735 0.0260659 23.8768 0.0537314 24.1466C0.0623278 24.3859 0.090082 24.6241 0.136728 24.859C0.157033 25.1293 0.203357 25.397 0.275055 25.6585C0.315241 26.006 0.401773 26.3465 0.532343 26.671L0.591824 26.8799C0.596987 26.9212 0.608659 26.9613 0.626406 26.9989C0.724493 27.4423 0.882239 27.8704 1.09533 28.2715C1.12992 28.5481 1.30283 28.7709 1.41349 29.0143C1.4732 29.1699 1.54925 29.3188 1.64034 29.4583C1.64034 29.4583 2.12311 30.2703 2.14247 30.2883L3.30857 31.5623C3.35744 31.5851 3.4038 31.6129 3.4469 31.6453C4.00851 32.1806 4.68216 32.5583 5.32815 32.9746H5.42083C5.76997 33.1699 6.13398 33.3373 6.50946 33.4754C6.86496 33.6137 7.22461 33.7271 7.5815 33.853C7.71014 33.8862 8.47371 34.12 9.02425 34.2431L9.15151 34.2873C9.3507 34.3551 9.53467 34.463 9.74078 34.5128C10.0907 34.6552 10.4527 34.7659 10.8225 34.8434C10.9282 34.8858 11.0381 34.9169 11.1503 34.9361C11.5721 35.0308 11.9988 35.1019 12.4285 35.1491C12.4285 35.1325 12.138 35.091 12.138 35.0758C11.1455 34.8745 10.1752 34.5756 9.24142 34.1836C9.08679 34.1011 8.92637 34.0299 8.76143 33.9706C8.65816 33.9046 8.54941 33.8477 8.43636 33.8004C8.24206 33.718 8.05667 33.6161 7.88305 33.4961C6.71035 32.8029 5.70222 31.8632 4.92838 30.742C4.4217 29.9806 4.01186 29.1591 3.70834 28.2964C3.30468 27.1582 3.03814 25.9759 2.91434 24.7746C2.86454 24.3596 2.87976 23.9294 2.77601 23.5158C2.83549 23.4702 2.82442 23.4038 2.82304 23.3429C2.78984 22.4604 2.87422 21.5778 2.87007 20.6953C2.88529 20.669 2.91019 20.6427 2.91157 20.6165C2.95307 19.8322 3.0499 19.0548 3.14258 18.276C3.24771 17.3644 3.41923 16.468 3.60321 15.5703C3.73323 14.9395 3.90199 14.3157 4.05139 13.6946C4.40689 12.5963 4.71812 11.4813 5.1331 10.4038C5.27954 10.1152 5.40528 9.81659 5.50935 9.51018C5.66674 9.26264 5.80545 9.00371 5.92434 8.73555C6.06266 8.44644 6.20099 8.15457 6.349 7.86409C6.3905 7.82812 6.44583 7.80046 6.46796 7.75619C6.64225 7.39239 6.90784 7.08669 7.1015 6.73534C7.52755 6.20554 7.8955 5.62872 8.37134 5.13627L8.46541 5.04359C8.51426 5.04622 8.56303 5.03704 8.60758 5.01681C8.65212 4.99658 8.69114 4.96591 8.72131 4.9274C9.02563 4.62031 9.27462 4.26205 9.66332 4.03796C9.81254 3.95432 9.94673 3.84632 10.0603 3.71842C10.4587 3.24672 11.0051 2.97975 11.4796 2.6284C11.7756 2.40985 12.1352 2.27705 12.4188 2.03083C12.5447 1.99901 12.6816 1.9838 12.748 1.8427C12.7842 1.84116 12.8197 1.83198 12.8521 1.81577C12.8845 1.79956 12.9132 1.77669 12.9361 1.74864C13.2128 1.71129 13.4397 1.54807 13.679 1.43187C14.2767 1.14314 14.8965 0.90261 15.5325 0.712571C15.657 0.675223 16.4109 0.507847 16.5188 0.42485C16.2422 0.42485 14.9364 0.662773 14.2655 0.839832L14.2461 0.830149ZM0.948708 20.178C0.949226 20.1729 0.949226 20.1678 0.948708 20.1628L0.97084 20.178H0.948708ZM8.58298 33.954H8.56639L8.5484 33.9374L8.58298 33.954ZM2.50904 23.2101C2.49797 23.2101 2.49382 23.2101 2.49659 23.2198C2.49936 23.2295 2.47584 23.2046 2.50766 23.2073H2.545H2.50904V23.2101ZM4.67524 11.3043C4.669 11.2987 4.66202 11.2941 4.65449 11.2905L4.67939 11.2628C4.67939 11.2766 4.67663 11.2905 4.67524 11.3043ZM5.92019 5.50284C5.93081 5.49124 5.94488 5.48336 5.96033 5.48037C5.97577 5.47738 5.99176 5.47944 6.00595 5.48624C5.97687 5.48883 5.94813 5.49439 5.92019 5.50284Z" fill="#B9BBD0"/>
<path d="M25.2943 0.0153954C26.2059 0.0831757 32.313 0.222886 32.5164 0.243635C32.6893 0.52029 32.6893 0.52029 32.3241 0.967086C32.1121 1.20349 31.9188 1.45601 31.7459 1.72235C31.6214 1.88973 31.501 2.06125 31.3765 2.22863C31.2402 2.41209 31.1133 2.6023 30.9961 2.79854C30.1551 3.95772 21.02 16.3878 20.8457 16.6313C20.3062 17.3768 18.6131 19.8847 18.5979 19.9055C18.5467 19.9774 18.4678 20.0576 18.6449 20.0618H18.7832C20.9121 20.0618 25.5723 19.9788 25.7729 20.0701C25.9112 20.2084 25.8434 20.3758 25.8573 20.5321C25.8679 20.6327 25.8632 20.7344 25.8434 20.8336C25.7812 21.1241 24.8254 34.5626 24.7797 34.795C24.7795 34.8652 24.7604 34.934 24.7244 34.9942C24.4242 35.0385 24.1213 35.0066 23.8183 35.0468C23.1267 35.1394 22.4171 35.1546 21.7171 35.1851C20.9384 35.221 20.1596 35.2681 19.3808 35.2985C18.5218 35.3317 17.6628 35.3359 16.8065 35.3926C16.1813 35.4341 15.5616 35.4133 14.935 35.4023C14.1002 35.391 13.2676 35.3133 12.4451 35.1699C12.3538 35.1533 12.2597 35.1505 12.1684 35.1339C11.5186 35.0195 10.8782 34.8567 10.2526 34.647C9.68407 34.4755 9.15704 34.2016 8.59266 34.0107C8.56866 34.0028 8.54585 33.9916 8.52488 33.9775C8.24135 33.7847 7.94817 33.6065 7.64651 33.4435C6.14276 32.5086 4.93426 31.1673 4.16066 29.5745C3.15641 27.4692 2.72206 25.0097 2.72621 23.4591C2.74696 23.1465 2.73866 22.8338 2.73313 22.5226C2.72206 21.9223 2.79952 21.3261 2.79399 20.7244C2.843 20.4793 2.86802 20.2301 2.86869 19.9802C2.96891 18.7582 3.13375 17.5425 3.36251 16.338C3.52851 15.4541 4.4802 11.8313 5.05564 10.3996C5.58446 9.20572 6.19597 8.05018 6.88571 6.94144C7.92039 5.32578 8.65906 4.7282 9.83208 3.78758C10.2471 3.42101 10.7022 3.10701 11.1365 2.76396C11.3359 2.62587 11.5428 2.49887 11.7562 2.38356C11.9485 2.2646 12.8711 1.7265 12.9389 1.69192C13.6886 1.3046 15.1106 0.6683 15.888 0.50369C18.1912 0.0140121 24.6027 -0.0344024 25.2943 0.0153954Z" fill="#FEFCFF"/>
<path d="M58.9742 1.63383C58.9473 1.74155 58.9034 1.84429 58.8442 1.93815C58.7141 2.17884 48.1418 13.9104 47.7088 14.4C47.6222 14.5095 47.5298 14.6143 47.4322 14.714C47.3984 14.7412 47.3752 14.7793 47.3666 14.8217C47.358 14.8642 47.3646 14.9083 47.3851 14.9464C47.4502 15.035 54.4952 32.0852 54.6542 32.5389C54.7723 32.8283 54.7984 33.1471 54.7289 33.4518C54.704 33.5475 54.6613 33.6376 54.6031 33.7174C54.5816 33.7256 54.5621 33.7381 54.5459 33.7544C54.5297 33.7706 54.5171 33.79 54.509 33.8115C54.3907 33.9361 54.2485 34.0355 54.091 34.104C53.9334 34.1724 53.7637 34.2084 53.5919 34.2099C52.7619 34.2417 51.932 34.2417 51.102 34.2638C49.6952 34.3026 48.2898 34.3496 46.8816 34.3579C46.6811 34.3579 45.5827 34.3288 45.3393 34.2334C45.2492 34.2084 45.1617 34.175 45.0778 34.1338L45.0571 34.1227C44.8322 34.0102 44.6366 33.8468 44.4858 33.6455L44.4747 33.6344C44.3913 33.5239 44.3168 33.4069 44.252 33.2845C44.187 33.1627 44.1275 33.0341 44.0722 32.9027C43.9339 32.5873 43.8191 32.2664 43.7001 31.9441C43.6975 31.9356 43.6942 31.9272 43.6904 31.9192C43.6794 31.8887 43.6683 31.8569 43.6558 31.8265C43.5881 31.6425 43.5175 31.4599 43.4497 31.2732C43.4304 31.2197 43.4096 31.1658 43.3875 31.1113C43.3875 31.1113 43.3875 31.0989 43.3806 31.0934L43.3349 30.9786C42.9919 30.1334 42.6862 29.273 42.3445 28.4264C42.0748 27.7541 41.8189 27.075 41.5657 26.3972C41.3126 25.6654 41.0124 24.9503 40.7427 24.2268C40.5947 23.8353 40.4425 23.4466 40.2917 23.0579C40.2793 23.0289 40.2682 22.9998 40.2585 22.9749C40.235 22.9293 40.2032 22.9002 40.1465 22.9238C40.126 22.9337 40.107 22.9463 40.0898 22.9611C39.5295 23.6057 38.001 25.3127 37.8406 25.48C37.7175 25.8466 37.7313 26.2339 37.6621 26.6102C37.6455 26.6987 37.593 27.0252 37.5155 27.4872C37.1849 29.4819 36.4158 34.1103 36.2705 34.3081C36.2263 34.3703 36.1806 34.4312 36.0921 34.4298C35.7311 34.6387 26.2709 35.0869 25.5599 35.1325C25.4672 35.1325 25.3731 35.1325 25.2832 35.1325C25.2556 35.0302 25.3178 34.9513 25.3621 34.8711C26.1436 33.4781 26.8837 32.0658 27.65 30.6632C28.4163 29.2605 29.1716 27.8371 29.9296 26.4248C30.5558 25.262 31.1861 24.0995 31.8206 22.9376C32.4278 21.831 33.0199 20.7036 33.6271 19.5915C34.3962 18.1833 35.139 16.7613 35.9192 15.3587C35.9552 15.2923 36.0451 15.2203 35.9482 15.1359C35.1335 15.111 34.3201 15.1359 33.5068 15.1263L31.8468 15.111H31.8136C31.3171 15.111 30.8827 15.111 30.7375 15.111H30.7029C30.6791 15.1018 30.6592 15.0847 30.6466 15.0625C30.634 15.0403 30.6294 15.0145 30.6337 14.9893C30.772 14.4858 30.8094 13.9947 30.9104 13.4843C31.0487 12.7277 31.187 11.9627 31.3115 11.2116C31.4789 10.2433 31.6407 9.28332 31.8081 8.31918C31.9437 7.46985 32.0903 6.63989 32.2383 5.80993C32.3919 4.93017 32.5399 4.04902 32.6934 3.16926C32.7902 2.61595 32.912 2.07094 32.9908 1.51764C33.0544 1.06946 33.1527 0.603293 33.1748 0.148196C33.1755 0.143147 33.1755 0.138029 33.1748 0.13298C33.6174 0.13298 40.5227 0.456666 40.6887 0.495398C41.0511 0.577011 41.2268 0.803867 41.242 1.17873C41.242 1.23821 40.1271 9.67894 40.0344 10.6445C40.0303 10.6914 40.021 10.7378 40.0068 10.7828C39.9981 10.8127 39.987 10.8419 39.9736 10.8699C39.9736 10.8782 39.9736 10.881 39.9667 10.881C39.9597 10.881 39.9667 10.881 39.9667 10.8907C39.9667 10.9004 39.9763 10.8769 39.986 10.8727L40.0151 10.845C40.1714 10.6901 40.6099 10.1866 41.148 9.55721C42.1591 8.37866 43.5203 6.763 44.0335 6.17511C44.8053 5.2912 45.5551 4.38792 46.3352 3.50816C46.7267 3.06413 48.5416 1.09435 48.8666 0.879947C49.2614 0.755137 49.6645 0.658072 50.0728 0.58946C50.5716 0.54659 51.0729 0.542427 51.5723 0.577011C52.3234 0.615742 53.0745 0.58946 53.8229 0.624042C54.8866 0.672456 55.9504 0.624042 57.0127 0.677989C57.4416 0.67508 57.8702 0.697714 58.2964 0.74577C58.8995 0.845365 59.0724 1.24513 58.9742 1.63383Z" fill="#FEFCFF"/>
<path fill-rule="evenodd" clip-rule="evenodd" d="M74.2568 4.88659C73.7726 4.44293 73.2048 4.1146 72.5534 3.90189C71.9022 3.68901 71.2676 3.58235 70.6496 3.58235C70.2155 3.58235 69.7854 3.65337 69.3596 3.79523C68.9337 3.93716 68.5538 4.15896 68.2198 4.46063C67.8858 4.76229 67.6144 5.15267 67.4055 5.63178C67.1968 6.1107 67.0925 6.68735 67.0925 7.36152V12.9237C67.0925 13.598 67.1968 14.1746 67.4055 14.6535C67.6144 15.1326 67.8901 15.523 68.2323 15.8246C68.5746 16.1263 68.9546 16.3481 69.3721 16.49C69.7896 16.6319 70.207 16.7029 70.6247 16.7029C71.2425 16.7029 71.8689 16.6098 72.5034 16.4234C73.1379 16.2371 73.7393 15.9044 74.3071 15.4255L75.6597 17.7674C75.0753 18.2819 74.3403 18.6989 73.4554 19.0181C72.5703 19.3375 71.6265 19.4973 70.6247 19.4973C69.7896 19.4973 68.9879 19.3686 68.2198 19.1113C67.4514 18.8541 66.7711 18.4727 66.1783 17.967C65.5854 17.4612 65.1094 16.8358 64.7504 16.0907C64.3914 15.3455 64.2118 14.4939 64.2118 13.5359V6.74947C64.2118 5.79134 64.3914 4.9443 64.7504 4.20771C65.1094 3.47154 65.5854 2.85051 66.1783 2.34493C66.7711 1.83934 67.4514 1.45329 68.2198 1.18726C68.9879 0.921045 69.7812 0.787964 70.5996 0.787964C71.5514 0.787964 72.4658 0.92983 73.3426 1.21392C74.2194 1.49771 74.9917 1.93246 75.6597 2.51785L74.2568 4.88659ZM88.4605 6.21717C88.1266 6.80254 87.7881 7.38372 87.4458 7.96014C87.1036 8.53694 86.7568 9.10926 86.4063 9.67691C86.2895 9.87213 86.0806 10.218 85.7798 10.7148C85.4799 11.2116 85.1331 11.7838 84.7403 12.4313C84.3484 13.079 83.9307 13.7664 83.4883 14.4939C83.0458 15.2214 82.6235 15.9088 82.2233 16.5565C81.8222 17.2042 81.4717 17.7764 81.1709 18.2731C80.8701 18.7697 80.6613 19.1159 80.5444 19.3109H77.9143V0.974371H80.7698V14.0149H80.8959L88.7862 0.974371H91.4669V19.3109H88.6105V6.21717H88.4605ZM94.3721 0.974371H104.994V3.74209H97.2285V8.26645H101.587C102.422 8.26645 103.165 8.4127 103.816 8.70557C104.468 8.99826 105.015 9.39737 105.457 9.9031C105.9 10.4088 106.238 10.9942 106.472 11.6595C106.706 12.3251 106.823 13.0213 106.823 13.7487C106.823 14.4052 106.722 15.0661 106.522 15.7313C106.321 16.3967 106.013 16.9956 105.594 17.5278C105.178 18.0601 104.647 18.4905 104.004 18.8186C103.361 19.1469 102.589 19.3109 101.687 19.3109H94.3721V0.974371ZM97.2285 16.5698H101.186C102.021 16.5698 102.702 16.3125 103.227 15.798C103.754 15.2834 104.017 14.6004 104.017 13.7487C104.017 12.8969 103.745 12.2273 103.203 11.7393C102.66 11.2516 101.971 11.0076 101.136 11.0076H97.2285V16.5698ZM108.902 19.3109V0.974371H111.757V8.6123H113.987C114.287 8.6123 114.584 8.58124 114.876 8.51931C115.168 8.45719 115.448 8.33743 115.716 8.15993C115.982 7.98262 116.229 7.72976 116.454 7.40144C116.68 7.07321 116.876 6.64295 117.043 6.1107L118.596 0.974371H121.427L119.874 6.32358C119.606 7.22851 119.264 7.98262 118.846 8.58581C118.429 9.1891 117.953 9.58821 117.418 9.78333C118.137 10.0317 118.696 10.4708 119.097 11.1008C119.498 11.7305 119.823 12.498 120.074 13.4028L121.727 19.3109H118.671L117.218 13.9083C117.068 13.3584 116.884 12.9105 116.667 12.5644C116.45 12.2184 116.208 11.9479 115.941 11.7528C115.673 11.5575 115.385 11.4289 115.076 11.3668C114.767 11.3048 114.446 11.2737 114.112 11.2737H111.757V19.3109H108.902ZM136.682 13.3761C136.682 14.3342 136.516 15.1947 136.182 15.9578C135.848 16.7206 135.384 17.3637 134.791 17.8872C134.198 18.4106 133.506 18.8097 132.712 19.0848C131.919 19.3596 131.071 19.4973 130.169 19.4973C129.251 19.4973 128.394 19.3596 127.601 19.0848C126.808 18.8097 126.124 18.4106 125.548 17.8872C124.971 17.3637 124.517 16.7206 124.182 15.9578C123.848 15.1947 123.681 14.3342 123.681 13.3761V6.85589C123.681 5.89782 123.853 5.0462 124.195 4.301C124.537 3.55568 125.001 2.92154 125.585 2.39808C126.17 1.87474 126.854 1.47556 127.639 1.20043C128.424 0.925618 129.267 0.787964 130.169 0.787964C131.054 0.787964 131.894 0.92983 132.687 1.21392C133.48 1.49771 134.173 1.90139 134.766 2.42474C135.359 2.9482 135.827 3.58693 136.169 4.34103C136.511 5.09514 136.682 5.95114 136.682 6.90915V13.3761ZM133.802 7.36152C133.802 6.70507 133.701 6.13737 133.501 5.65844C133.3 5.17928 133.034 4.78457 132.7 4.47393C132.366 4.16354 131.977 3.93716 131.534 3.79523C131.092 3.65337 130.637 3.58235 130.169 3.58235C129.685 3.58235 129.226 3.65337 128.792 3.79523C128.358 3.93716 127.978 4.16354 127.652 4.47393C127.326 4.78457 127.063 5.17928 126.863 5.65844C126.662 6.13737 126.562 6.70507 126.562 7.36152V12.9238C126.562 13.598 126.662 14.1746 126.863 14.6535C127.063 15.1326 127.33 15.523 127.664 15.8246C127.999 16.1263 128.382 16.3481 128.817 16.49C129.251 16.6319 129.702 16.7029 130.169 16.7029C130.637 16.7029 131.092 16.6319 131.534 16.49C131.977 16.3481 132.366 16.1263 132.7 15.8246C133.034 15.523 133.3 15.1326 133.501 14.6535C133.701 14.1746 133.802 13.598 133.802 12.9238V7.36152ZM152.715 8.13325L151.111 11.5931L148.682 16.6763H146.577L144.223 11.8858L142.444 8.13325H142.343V19.3109H139.488V0.974371H142.169L145.45 7.94708L147.579 12.6577H147.73L149.834 7.89392L153.04 0.974371H155.671V19.3109H152.815V8.13325H152.715ZM168.622 19.3109V3.71548H161.383V19.3109H158.526V0.974371H171.528V19.3109H168.622ZM179.118 3.71548V9.06467C179.118 10.6971 179.026 12.1253 178.842 13.3494C178.658 14.5737 178.354 15.6251 177.928 16.5031C177.502 17.3814 176.947 18.0912 176.262 18.6324C175.577 19.1736 174.734 19.5771 173.732 19.8431L172.855 17.315C173.506 17.0313 174.054 16.6806 174.495 16.2636C174.939 15.8467 175.294 15.3234 175.561 14.6935C175.827 14.0636 176.016 13.2919 176.124 12.3782C176.233 11.4645 176.287 10.3511 176.287 9.03818V0.974371H187.284V19.3109H184.353V3.71548H179.118ZM190.365 0.974371H202.063V3.71548H193.221V8.7455H200.786V11.4866H193.221V16.5963H202.063V19.3109H190.365V0.974371ZM204.494 19.3109V0.974371H207.349V8.6123H209.579C209.879 8.6123 210.175 8.58124 210.468 8.51931C210.76 8.45719 211.04 8.33743 211.308 8.15993C211.575 7.98262 211.821 7.72976 212.046 7.40144C212.272 7.07321 212.468 6.64295 212.635 6.1107L214.188 0.974371H217.019L215.466 6.32358C215.198 7.22851 214.856 7.98262 214.438 8.58581C214.021 9.1891 213.545 9.58821 213.011 9.78333C213.729 10.0317 214.288 10.4708 214.689 11.1008C215.09 11.7305 215.415 12.498 215.666 13.4028L217.32 19.3109H214.264L212.81 13.9083C212.66 13.3584 212.476 12.9105 212.259 12.5644C212.042 12.2184 211.8 11.9479 211.533 11.7528C211.265 11.5575 210.978 11.4289 210.668 11.3668C210.359 11.3048 210.038 11.2737 209.704 11.2737H207.349V19.3109H204.494ZM225.962 3.74209V19.3109H223.081V3.74209H218.297V0.974371H230.721V3.74209H225.962Z" fill="white"/>
<path d="M229.193 30.9373H227.791L227.465 30.8036C227.104 30.6893 226.826 30.5145 226.632 30.2791C226.437 30.0414 226.34 29.7466 226.34 29.3947C226.34 29.0725 226.411 28.7994 226.553 28.5754C226.697 28.3515 226.9 28.1812 227.163 28.0647C227.428 27.9481 227.741 27.8899 228.102 27.8899H229.7V32.8809H229.038V28.4315H228.102C227.737 28.4315 227.461 28.5183 227.276 28.692C227.093 28.8657 227.002 29.0999 227.002 29.3947C227.002 29.5867 227.042 29.7581 227.122 29.9089C227.204 30.0597 227.325 30.1786 227.485 30.2654C227.645 30.3522 227.844 30.3957 228.082 30.3957H229.196L229.193 30.9373ZM228.068 30.5945L226.855 32.8809H226.152L227.4 30.5945H228.068Z" fill="white"/>
<path d="M222.099 31.736L224.557 27.8899H225.219V32.8809H224.557V29.0314L222.099 32.8809H221.441V27.8899H222.099V31.736Z" fill="white"/>
<path d="M219.658 30.0357V30.5739H216.957V30.0357H219.658ZM217.059 27.8899V32.8809H216.398V27.8899H217.059ZM220.234 27.8899V32.8809H219.576V27.8899H220.234Z" fill="white"/>
<path d="M215.578 32.3427V32.8809H212.935V32.3427H215.578ZM213.069 27.8899V32.8809H212.407V27.8899H213.069ZM215.229 30.0357V30.5739H212.935V30.0357H215.229ZM215.544 27.8899V28.4315H212.935V27.8899H215.544Z" fill="white"/>
<path d="M205.821 27.8899H206.486V32.3427H208.2V27.8899H208.859V32.3427H210.562V27.8899H211.224V32.8809H205.821V27.8899Z" fill="white"/>
<path d="M204.978 32.3427V32.8809H202.334V32.3427H204.978ZM202.468 27.8899V32.8809H201.806V27.8899H202.468ZM204.628 30.0357V30.5739H202.334V30.0357H204.628ZM204.943 27.8899V28.4315H202.334V27.8899H204.943Z" fill="white"/>
<path d="M199.218 30.9235H197.884V30.3854H199.218C199.476 30.3854 199.685 30.3442 199.845 30.262C200.005 30.1797 200.122 30.0654 200.195 29.9192C200.27 29.7729 200.308 29.6061 200.308 29.4187C200.308 29.2473 200.27 29.0862 200.195 28.9354C200.122 28.7845 200.005 28.6634 199.845 28.572C199.685 28.4783 199.476 28.4315 199.218 28.4315H198.038V32.8809H197.377V27.8899H199.218C199.595 27.8899 199.914 27.955 200.174 28.0853C200.435 28.2155 200.633 28.396 200.767 28.6269C200.902 28.8554 200.97 29.117 200.97 29.4118C200.97 29.7318 200.902 30.0049 200.767 30.2311C200.633 30.4574 200.435 30.6299 200.174 30.7487C199.914 30.8653 199.595 30.9235 199.218 30.9235Z" fill="white"/>
<path d="M194.816 32.3427V32.8809H192.172V32.3427H194.816ZM192.306 27.8899V32.8809H191.644V27.8899H192.306ZM194.466 30.0357V30.5739H192.172V30.0357H194.466ZM194.781 27.8899V28.4315H192.172V27.8899H194.781Z" fill="white"/>
<path d="M187.321 31.736L189.779 27.8899H190.441V32.8809H189.779V29.0314L187.321 32.8809H186.663V27.8899H187.321V31.736Z" fill="white"/>
<path d="M182.813 27.8899V32.8809H182.151V27.8899H182.813ZM185.888 27.8899L183.721 30.6356H182.549L182.446 30.0871H183.327L185.068 27.8899H185.888ZM185.223 32.8809L183.347 30.5499L183.718 29.9706L186.032 32.8809H185.223Z" fill="white"/>
<path d="M180.56 31.2938H181.218C181.184 31.6091 181.094 31.8914 180.947 32.1404C180.801 32.3895 180.594 32.5872 180.327 32.7335C180.059 32.8774 179.726 32.9494 179.326 32.9494C179.033 32.9494 178.767 32.8946 178.527 32.7849C178.289 32.6752 178.085 32.5198 177.913 32.3187C177.742 32.1153 177.609 31.8719 177.516 31.5886C177.424 31.3029 177.378 30.9852 177.378 30.6356V30.1386C177.378 29.7889 177.424 29.4724 177.516 29.189C177.609 28.9034 177.743 28.6589 177.917 28.4555C178.093 28.2521 178.304 28.0955 178.551 27.9858C178.798 27.8762 179.076 27.8213 179.384 27.8213C179.761 27.8213 180.08 27.8921 180.341 28.0338C180.601 28.1755 180.803 28.3721 180.947 28.6234C181.094 28.8725 181.184 29.1616 181.218 29.4907H180.56C180.528 29.2576 180.469 29.0576 180.382 28.8908C180.295 28.7217 180.171 28.5914 180.011 28.5C179.851 28.4086 179.642 28.3629 179.384 28.3629C179.162 28.3629 178.967 28.4052 178.798 28.4897C178.631 28.5743 178.49 28.6943 178.376 28.8497C178.264 29.0051 178.18 29.1913 178.122 29.4084C178.065 29.6255 178.037 29.8666 178.037 30.1317V30.6356C178.037 30.8801 178.062 31.1098 178.112 31.3246C178.165 31.5394 178.244 31.728 178.349 31.8902C178.454 32.0525 178.588 32.1804 178.75 32.2741C178.912 32.3655 179.104 32.4113 179.326 32.4113C179.607 32.4113 179.831 32.3667 179.998 32.2776C180.165 32.1884 180.29 32.0605 180.375 31.8936C180.462 31.7268 180.523 31.5269 180.56 31.2938Z" fill="white"/>
<path d="M176.727 32.3427V32.8809H174.084V32.3427H176.727ZM174.217 27.8899V32.8809H173.556V27.8899H174.217ZM176.377 30.0357V30.5739H174.084V30.0357H176.377ZM176.693 27.8899V28.4315H174.084V27.8899H176.693Z" fill="white"/>
<path d="M168.687 27.8899H169.349V29.4496C169.349 29.7078 169.387 29.91 169.462 30.0563C169.538 30.2025 169.652 30.3054 169.805 30.3648C169.958 30.4242 170.149 30.4539 170.378 30.4539C170.515 30.4539 170.647 30.4482 170.775 30.4368C170.905 30.4254 171.032 30.4094 171.156 30.3888C171.279 30.3682 171.4 30.3431 171.519 30.3134C171.64 30.2837 171.759 30.2517 171.876 30.2174V30.759C171.764 30.7933 171.652 30.8253 171.54 30.855C171.43 30.8847 171.316 30.9098 171.197 30.9304C171.08 30.951 170.955 30.967 170.82 30.9784C170.687 30.9898 170.54 30.9955 170.378 30.9955C170.026 30.9955 169.723 30.9453 169.469 30.8447C169.218 30.7419 169.024 30.5773 168.89 30.3511C168.755 30.1248 168.687 29.8243 168.687 29.4496V27.8899ZM171.708 27.8899H172.369V32.8809H171.708V27.8899Z" fill="white"/>
<path d="M164.522 31.736L166.98 27.8899H167.642V32.8809H166.98V29.0314L164.522 32.8809H163.863V27.8899H164.522V31.736Z" fill="white"/>
<path d="M162.081 30.0357V30.5739H159.379V30.0357H162.081ZM159.482 27.8899V32.8809H158.82V27.8899H159.482ZM162.657 27.8899V32.8809H161.998V27.8899H162.657Z" fill="white"/>
<path d="M154.847 27.8899L156.047 29.8026L157.246 27.8899H158.018L156.441 30.3614L158.056 32.8809H157.277L156.047 30.9304L154.816 32.8809H154.037L155.652 30.3614L154.075 27.8899H154.847Z" fill="white"/>
<path d="M153.599 32.3427V32.8809H150.955V32.3427H153.599ZM151.089 27.8899V32.8809H150.427V27.8899H151.089ZM153.249 30.0357V30.5739H150.955V30.0357H153.249ZM153.564 27.8899V28.4315H150.955V27.8899H153.564Z" fill="white"/>
<path d="M148.082 27.8899V32.8809H147.431V27.8899H148.082ZM149.687 27.8899V28.4315H145.83V27.8899H149.687Z" fill="white"/>
<path d="M145.343 30.2277V30.5431C145.343 30.9178 145.296 31.2538 145.202 31.5509C145.109 31.8479 144.974 32.1005 144.798 32.3084C144.622 32.5164 144.41 32.6752 144.163 32.7849C143.919 32.8946 143.645 32.9494 143.341 32.9494C143.046 32.9494 142.775 32.8946 142.528 32.7849C142.284 32.6752 142.071 32.5164 141.89 32.3084C141.712 32.1005 141.574 31.8479 141.476 31.5509C141.377 31.2538 141.328 30.9178 141.328 30.5431V30.2277C141.328 29.8529 141.376 29.5181 141.472 29.2233C141.57 28.9262 141.709 28.6737 141.887 28.4657C142.065 28.2555 142.277 28.0955 142.521 27.9858C142.768 27.8762 143.039 27.8213 143.334 27.8213C143.638 27.8213 143.912 27.8762 144.157 27.9858C144.403 28.0955 144.615 28.2555 144.791 28.4657C144.969 28.6737 145.105 28.9262 145.199 29.2233C145.295 29.5181 145.343 29.8529 145.343 30.2277ZM144.688 30.5431V30.2208C144.688 29.9237 144.657 29.6609 144.595 29.4324C144.536 29.2039 144.448 29.0119 144.331 28.8565C144.215 28.7011 144.072 28.5834 143.903 28.5035C143.736 28.4235 143.546 28.3835 143.334 28.3835C143.128 28.3835 142.942 28.4235 142.775 28.5035C142.61 28.5834 142.469 28.7011 142.35 28.8565C142.233 29.0119 142.143 29.2039 142.079 29.4324C142.015 29.6609 141.983 29.9237 141.983 30.2208V30.5431C141.983 30.8424 142.015 31.1075 142.079 31.3383C142.143 31.5668 142.234 31.76 142.353 31.9176C142.474 32.073 142.617 32.1907 142.782 32.2707C142.949 32.3507 143.135 32.3907 143.341 32.3907C143.556 32.3907 143.746 32.3507 143.913 32.2707C144.08 32.1907 144.221 32.073 144.335 31.9176C144.451 31.76 144.539 31.5668 144.599 31.3383C144.658 31.1075 144.688 30.8424 144.688 30.5431Z" fill="white"/>
<path d="M138.911 30.9235H137.577V30.3854H138.911C139.169 30.3854 139.379 30.3442 139.538 30.262C139.698 30.1797 139.815 30.0654 139.888 29.9192C139.964 29.7729 140.001 29.6061 140.001 29.4187C140.001 29.2473 139.964 29.0862 139.888 28.9354C139.815 28.7845 139.698 28.6634 139.538 28.572C139.379 28.4783 139.169 28.4315 138.911 28.4315H137.732V32.8809H137.07V27.8899H138.911C139.288 27.8899 139.607 27.955 139.868 28.0853C140.128 28.2155 140.326 28.396 140.461 28.6269C140.596 28.8554 140.663 29.117 140.663 29.4118C140.663 29.7318 140.596 30.0049 140.461 30.2311C140.326 30.4574 140.128 30.6299 139.868 30.7487C139.607 30.8653 139.288 30.9235 138.911 30.9235Z" fill="white"/>
<path d="M134.725 27.8899V32.8809H134.074V27.8899H134.725ZM136.329 27.8899V28.4315H132.472V27.8899H136.329Z" fill="white"/>
<path d="M129.061 27.8899V32.8809H128.399V27.8899H129.061ZM132.136 27.8899L129.97 30.6356H128.797L128.694 30.0871H129.575L131.317 27.8899H132.136ZM131.471 32.8809L129.596 30.5499L129.966 29.9706L132.28 32.8809H131.471Z" fill="white"/>
<path d="M127.549 32.3427V32.8809H124.906V32.3427H127.549ZM125.04 27.8899V32.8809H124.378V27.8899H125.04ZM127.199 30.0357V30.5739H124.906V30.0357H127.199ZM127.515 27.8899V28.4315H124.906V27.8899H127.515Z" fill="white"/>
<path d="M122.616 27.8899V28.4315H120.332V27.8899H122.616ZM123.185 27.8899V32.8809H122.523V27.8899H123.185ZM120.106 27.8899H120.764L120.651 30.3339C120.635 30.6859 120.608 31.0001 120.569 31.2766C120.532 31.5509 120.48 31.7897 120.411 31.993C120.343 32.1942 120.253 32.361 120.144 32.4935C120.034 32.6238 119.899 32.7209 119.739 32.7849C119.581 32.8489 119.392 32.8809 119.17 32.8809H118.992V32.3427L119.129 32.3324C119.257 32.3233 119.367 32.2947 119.458 32.2467C119.552 32.1964 119.631 32.121 119.695 32.0205C119.761 31.9199 119.815 31.7897 119.856 31.6297C119.897 31.4697 119.929 31.2743 119.952 31.0435C119.977 30.8104 119.996 30.5385 120.01 30.2277L120.106 27.8899Z" fill="white"/>
<path d="M117.956 30.1214V30.663H115.91V30.1214H117.956ZM114.692 31.2938H115.351C115.387 31.5291 115.448 31.7302 115.532 31.8971C115.619 32.0639 115.746 32.1919 115.913 32.281C116.08 32.3678 116.304 32.4113 116.585 32.4113C116.807 32.4113 116.999 32.3655 117.161 32.2741C117.323 32.1804 117.457 32.0525 117.562 31.8902C117.667 31.728 117.745 31.5394 117.795 31.3246C117.848 31.1098 117.874 30.8801 117.874 30.6356V30.1351C117.874 29.9226 117.856 29.7261 117.819 29.5455C117.783 29.3627 117.728 29.1993 117.655 29.0553C117.581 28.9091 117.49 28.7845 117.38 28.6817C117.273 28.5789 117.147 28.5 117.003 28.4452C116.862 28.3903 116.703 28.3629 116.527 28.3629C116.271 28.3629 116.062 28.4086 115.899 28.5C115.739 28.5914 115.616 28.7217 115.529 28.8908C115.444 29.0576 115.385 29.2576 115.351 29.4907H114.692C114.727 29.1616 114.817 28.8725 114.963 28.6234C115.11 28.3721 115.312 28.1755 115.57 28.0338C115.831 27.8921 116.15 27.8213 116.527 27.8213C116.835 27.8213 117.113 27.8762 117.36 27.9858C117.607 28.0955 117.817 28.2521 117.991 28.4555C118.167 28.6589 118.3 28.9034 118.392 29.189C118.485 29.4747 118.532 29.7923 118.532 30.142V30.6356C118.532 30.9852 118.485 31.3029 118.392 31.5886C118.3 31.8719 118.169 32.1153 117.997 32.3187C117.826 32.5198 117.62 32.6752 117.38 32.7849C117.143 32.8946 116.878 32.9494 116.585 32.9494C116.185 32.9494 115.851 32.8774 115.584 32.7335C115.316 32.5872 115.11 32.3895 114.963 32.1404C114.819 31.8914 114.729 31.6091 114.692 31.2938Z" fill="white"/>
<path d="M112.203 32.3427V32.8809H109.56V32.3427H112.203ZM109.694 27.8899V32.8809H109.032V27.8899H109.694ZM111.854 30.0357V30.5739H109.56V30.0357H111.854ZM112.169 27.8899V28.4315H109.56V27.8899H112.169Z" fill="white"/>
<path d="M103.492 29.9226H104.853C105.218 29.9226 105.527 29.9843 105.778 30.1077C106.03 30.2288 106.221 30.3991 106.351 30.6185C106.481 30.8378 106.546 31.0949 106.546 31.3897C106.546 31.6091 106.51 31.8102 106.437 31.993C106.364 32.1736 106.255 32.3313 106.111 32.4661C105.967 32.5986 105.79 32.7015 105.58 32.7746C105.369 32.8455 105.127 32.8809 104.853 32.8809H102.988V27.8899H103.649V32.3427H104.853C105.097 32.3427 105.295 32.2981 105.446 32.209C105.599 32.1176 105.711 31.9988 105.782 31.8525C105.853 31.7062 105.888 31.5497 105.888 31.3829C105.888 31.2161 105.853 31.0629 105.782 30.9235C105.711 30.7841 105.599 30.6733 105.446 30.591C105.295 30.5065 105.097 30.4642 104.853 30.4642H103.492V29.9226ZM107.812 27.8899V32.8809H107.15V27.8899H107.812Z" fill="white"/>
<path d="M101.205 30.0357V30.5739H98.5033V30.0357H101.205ZM98.6061 27.8899V32.8809H97.9444V27.8899H98.6061ZM101.781 27.8899V32.8809H101.123V27.8899H101.781Z" fill="white"/>
<path d="M95.3491 30.5465H94.084L94.0771 30.0152H95.2256C95.4153 30.0152 95.5811 29.9832 95.7228 29.9192C95.8645 29.8552 95.9742 29.7638 96.0519 29.6449C96.1319 29.5238 96.1719 29.3799 96.1719 29.213C96.1719 29.0302 96.1365 28.8817 96.0656 28.7674C95.997 28.6509 95.8908 28.5663 95.7468 28.5137C95.6051 28.4589 95.4245 28.4315 95.2051 28.4315H94.2314V32.8809H93.5697V27.8899H95.2051C95.4611 27.8899 95.6896 27.9161 95.8908 27.9687C96.0919 28.019 96.2622 28.099 96.4016 28.2087C96.5433 28.3161 96.6507 28.4532 96.7239 28.62C96.797 28.7868 96.8336 28.9868 96.8336 29.2199C96.8336 29.4256 96.781 29.6118 96.6759 29.7786C96.5707 29.9432 96.4245 30.078 96.237 30.1831C96.0519 30.2882 95.8348 30.3557 95.5856 30.3854L95.3491 30.5465ZM95.3182 32.8809H93.8234L94.1971 32.3427H95.3182C95.5285 32.3427 95.7068 32.3061 95.853 32.233C96.0016 32.1599 96.1148 32.057 96.1925 31.9245C96.2702 31.7897 96.309 31.6308 96.309 31.448C96.309 31.2629 96.2759 31.1029 96.2096 30.9681C96.1433 30.8333 96.0393 30.7293 95.8976 30.6562C95.7559 30.583 95.5731 30.5465 95.3491 30.5465H94.4062L94.4131 30.0152H95.7022L95.8428 30.2071C96.0828 30.2277 96.2862 30.2962 96.453 30.4128C96.6199 30.5271 96.7467 30.6733 96.8336 30.8516C96.9227 31.0298 96.9673 31.2263 96.9673 31.4412C96.9673 31.752 96.8987 32.0148 96.7616 32.2296C96.6267 32.4421 96.4359 32.6044 96.189 32.7163C95.9422 32.826 95.6519 32.8809 95.3182 32.8809Z" fill="white"/>
<path d="M89.2464 31.736L91.7046 27.8899H92.3663V32.8809H91.7046V29.0314L89.2464 32.8809H88.5882V27.8899H89.2464V31.736Z" fill="white"/>
<path d="M86.2122 27.8899V32.8809H85.5608V27.8899H86.2122ZM87.8167 27.8899V28.4315H83.9597V27.8899H87.8167Z" fill="white"/>
<path d="M83.1678 27.8899V32.8809H82.5095V28.4315H80.0479V32.8809H79.3862V27.8899H83.1678Z" fill="white"/>
<path d="M76.6228 28.3321L74.9703 32.8809H74.2949L76.1977 27.8899H76.6331L76.6228 28.3321ZM78.0079 32.8809L76.352 28.3321L76.3417 27.8899H76.7771L78.6868 32.8809H78.0079ZM77.9222 31.0332V31.5748H75.1177V31.0332H77.9222Z" fill="white"/>
<path d="M73.3658 32.3427V32.8809H69.5876V32.3427H73.3658ZM69.6939 32.3427V34.1081H69.0391L69.0356 32.3427H69.6939ZM73.9418 32.3427L73.9349 34.1046H73.2801V32.3427H73.9418ZM72.7178 27.8899V28.4315H70.5304V27.8899H72.7178ZM73.2869 27.8899V32.8809H72.6287V27.8899H73.2869ZM70.3042 27.8899H70.9659L70.863 29.8986C70.8493 30.2003 70.8207 30.4791 70.7773 30.735C70.7339 30.9887 70.6802 31.2206 70.6162 31.4309C70.5522 31.6411 70.479 31.8297 70.3967 31.9965C70.3145 32.161 70.2265 32.3038 70.1327 32.425C70.039 32.5438 69.9408 32.6421 69.8379 32.7198C69.7373 32.7952 69.6356 32.8489 69.5328 32.8809H69.2311V32.3427H69.4436C69.5031 32.2787 69.5705 32.1862 69.6459 32.065C69.7236 31.9439 69.8002 31.7874 69.8756 31.5954C69.9533 31.4012 70.0207 31.1646 70.0779 30.8858C70.1373 30.607 70.1773 30.278 70.1979 29.8986L70.3042 27.8899Z" fill="white"/>
<path d="M66.6392 28.3321L64.9866 32.8809H64.3112L66.214 27.8899H66.6494L66.6392 28.3321ZM68.0242 32.8809L66.3683 28.3321L66.358 27.8899H66.7934L68.7031 32.8809H68.0242ZM67.9385 31.0333V31.5749H65.1341V31.0333H67.9385Z" fill="white"/>
</svg>
